# xmcd
#
# Track frame offsets:
#	150
#	15875
#	30398
#	43467
#	58038
#	68242
#	82152
#	94752
#	108412
#	122429
#	140198
#	159639
#	177636
#	191447
#
# Disc length: 2736 seconds
#
# Revision: 0
# Processed by: cddbd v1.5.2PL0 Copyright (c) Steve Scherf et al.
# Submitted via: dBpowerAMP V4.0
#
DISCID=c20aae0e
DTITLE=Los Hermanos Barron - 44 Cumbias
DYEAR=1900
DGENRE=Cumbias
TTITLE0=Pancho el Cumbiambero
TTITLE1=A mi Saltillo
TTITLE2=Polvora en los pies
TTITLE3=La Gaita
TTITLE4=Dejame Quererte
TTITLE5=Recuerdo de amor
TTITLE6=Ritmo movidito
TTITLE7=Cielito lindo
TTITLE8=Magico acordeon
TTITLE9=El manicero
TTITLE10=Piedad
TTITLE11=Ritmo sabroson
TTITLE12=Brinca pa delante
TTITLE13=Ay que crisis
EXTD=
EXTT0=
EXTT1=
EXTT2=
EXTT3=
EXTT4=
EXTT5=
EXTT6=
EXTT7=
EXTT8=
EXTT9=
EXTT10=
EXTT11=
EXTT12=
EXTT13=
PLAYORDER=
